<?xml version='1.0' encoding='UTF-8'?>
<svg xmlns="http://www.w3.org/2000/svg" xmlns:ev="http://www.w3.org/2001/xml-events" xmlns:xlink="http://www.w3.org/1999/xlink" baseProfile="full" height="16" version="1.1" width="16">
  <defs/>
  <rect fill="rgb(0,0,0)" fill-opacity="1.0" height="1" width="1" x="10" y="0"/>
  <rect fill="rgb(0,0,0)" fill-opacity="1.0" height="1" width="1" x="11" y="0"/>
  <rect fill="rgb(0,0,0)" fill-opacity="1.0" height="1" width="1" x="12" y="0"/>
  <rect fill="rgb(0,0,0)" fill-opacity="1.0" height="1" width="1" x="9" y="1"/>
  <rect fill="rgb(0,0,0)" fill-opacity="1.0" height="1" width="1" x="13" y="1"/>
  <rect fill="rgb(0,0,0)" fill-opacity="1.0" height="1" width="1" x="8" y="2"/>
  <rect fill="rgb(0,0,0)" fill-opacity="1.0" height="1" width="1" x="14" y="2"/>
  <rect fill="rgb(0,0,0)" fill-opacity="1.0" height="1" width="1" x="8" y="3"/>
  <rect fill="rgb(0,0,0)" fill-opacity="1.0" height="1" width="1" x="12" y="3"/>
  <rect fill="rgb(0,0,0)" fill-opacity="1.0" height="1" width="1" x="14" y="3"/>
  <rect fill="rgb(0,0,0)" fill-opacity="1.0" height="1" width="1" x="8" y="4"/>
  <rect fill="rgb(191.25,191.25,191.25)" fill-opacity="1.0" height="1" width="1" x="13" y="4"/>
  <rect fill="rgb(191.25,191.25,191.25)" fill-opacity="1.0" height="1" width="1" x="14" y="4"/>
  <rect fill="rgb(0,0,0)" fill-opacity="1.0" height="1" width="1" x="15" y="4"/>
  <rect fill="rgb(0,0,0)" fill-opacity="1.0" height="1" width="1" x="9" y="5"/>
  <rect fill="rgb(0,0,0)" fill-opacity="1.0" height="1" width="1" x="13" y="5"/>
  <rect fill="rgb(0,0,0)" fill-opacity="1.0" height="1" width="1" x="14" y="5"/>
  <rect fill="rgb(0,0,0)" fill-opacity="1.0" height="1" width="1" x="1" y="6"/>
  <rect fill="rgb(0,0,0)" fill-opacity="1.0" height="1" width="1" x="10" y="6"/>
  <rect fill="rgb(0,0,0)" fill-opacity="1.0" height="1" width="1" x="12" y="6"/>
  <rect fill="rgb(0,0,0)" fill-opacity="1.0" height="1" width="1" x="0" y="7"/>
  <rect fill="rgb(0,0,0)" fill-opacity="1.0" height="1" width="1" x="2" y="7"/>
  <rect fill="rgb(0,0,0)" fill-opacity="1.0" height="1" width="1" x="8" y="7"/>
  <rect fill="rgb(0,0,0)" fill-opacity="1.0" height="1" width="1" x="9" y="7"/>
  <rect fill="rgb(0,0,0)" fill-opacity="1.0" height="1" width="1" x="12" y="7"/>
  <rect fill="rgb(0,0,0)" fill-opacity="1.0" height="1" width="1" x="0" y="8"/>
  <rect fill="rgb(0,0,0)" fill-opacity="1.0" height="1" width="1" x="3" y="8"/>
  <rect fill="rgb(0,0,0)" fill-opacity="1.0" height="1" width="1" x="4" y="8"/>
  <rect fill="rgb(0,0,0)" fill-opacity="1.0" height="1" width="1" x="5" y="8"/>
  <rect fill="rgb(0,0,0)" fill-opacity="1.0" height="1" width="1" x="6" y="8"/>
  <rect fill="rgb(0,0,0)" fill-opacity="1.0" height="1" width="1" x="7" y="8"/>
  <rect fill="rgb(0,0,0)" fill-opacity="1.0" height="1" width="1" x="13" y="8"/>
  <rect fill="rgb(0,0,0)" fill-opacity="1.0" height="1" width="1" x="0" y="9"/>
  <rect fill="rgb(0,0,0)" fill-opacity="1.0" height="1" width="1" x="14" y="9"/>
  <rect fill="rgb(0,0,0)" fill-opacity="1.0" height="1" width="1" x="1" y="10"/>
  <rect fill="rgb(0,0,0)" fill-opacity="1.0" height="1" width="1" x="10" y="10"/>
  <rect fill="rgb(0,0,0)" fill-opacity="1.0" height="1" width="1" x="14" y="10"/>
  <rect fill="rgb(0,0,0)" fill-opacity="1.0" height="1" width="1" x="1" y="11"/>
  <rect fill="rgb(0,0,0)" fill-opacity="1.0" height="1" width="1" x="4" y="11"/>
  <rect fill="rgb(0,0,0)" fill-opacity="1.0" height="1" width="1" x="9" y="11"/>
  <rect fill="rgb(0,0,0)" fill-opacity="1.0" height="1" width="1" x="14" y="11"/>
  <rect fill="rgb(0,0,0)" fill-opacity="1.0" height="1" width="1" x="2" y="12"/>
  <rect fill="rgb(0,0,0)" fill-opacity="1.0" height="1" width="1" x="5" y="12"/>
  <rect fill="rgb(0,0,0)" fill-opacity="1.0" height="1" width="1" x="6" y="12"/>
  <rect fill="rgb(0,0,0)" fill-opacity="1.0" height="1" width="1" x="7" y="12"/>
  <rect fill="rgb(0,0,0)" fill-opacity="1.0" height="1" width="1" x="8" y="12"/>
  <rect fill="rgb(0,0,0)" fill-opacity="1.0" height="1" width="1" x="9" y="12"/>
  <rect fill="rgb(0,0,0)" fill-opacity="1.0" height="1" width="1" x="13" y="12"/>
  <rect fill="rgb(0,0,0)" fill-opacity="1.0" height="1" width="1" x="2" y="13"/>
  <rect fill="rgb(0,0,0)" fill-opacity="1.0" height="1" width="1" x="13" y="13"/>
  <rect fill="rgb(0,0,0)" fill-opacity="1.0" height="1" width="1" x="3" y="14"/>
  <rect fill="rgb(0,0,0)" fill-opacity="1.0" height="1" width="1" x="4" y="14"/>
  <rect fill="rgb(0,0,0)" fill-opacity="1.0" height="1" width="1" x="11" y="14"/>
  <rect fill="rgb(0,0,0)" fill-opacity="1.0" height="1" width="1" x="12" y="14"/>
  <rect fill="rgb(0,0,0)" fill-opacity="1.0" height="1" width="1" x="5" y="15"/>
  <rect fill="rgb(0,0,0)" fill-opacity="1.0" height="1" width="1" x="6" y="15"/>
  <rect fill="rgb(0,0,0)" fill-opacity="1.0" height="1" width="1" x="7" y="15"/>
  <rect fill="rgb(0,0,0)" fill-opacity="1.0" height="1" width="1" x="8" y="15"/>
  <rect fill="rgb(0,0,0)" fill-opacity="1.0" height="1" width="1" x="9" y="15"/>
  <rect fill="rgb(0,0,0)" fill-opacity="1.0" height="1" width="1" x="10" y="15"/>
</svg>
